<svg width="450" height="188" viewBox="0 0 450 188" fill="none" xmlns="http://www.w3.org/2000/svg">
<rect x="62.4125" y="43" width="40.4164" height="103.208" rx="20.2082" transform="rotate(36.9243 62.4125 43)" fill="white"/>
<rect x="106.702" y="155.4" width="40.4164" height="103.208" rx="20.2082" transform="rotate(127.09 106.702 155.4)" fill="white"/>
<rect x="192.29" y="144.779" width="40.4164" height="103.208" rx="20.2082" transform="rotate(-142.896 192.29 144.779)" fill="white"/>
<rect x="148.353" y="32.2397" width="40.4164" height="103.208" rx="20.2082" transform="rotate(-52.7304 148.353 32.2397)" fill="white"/>
<rect x="139.221" y="146.863" width="40.4164" height="103.208" rx="20.2082" transform="rotate(-168.982 139.221 146.863)" fill="white"/>
<rect x="170.671" y="163.03" width="40.4164" height="151.979" rx="20.2082" transform="rotate(-168.982 170.671 163.03)" fill="white"/>
<rect x="83.379" y="25" width="40.4164" height="148.024" rx="20.2082" transform="rotate(11.3882 83.379 25)" fill="white"/>
<path fill-rule="evenodd" clip-rule="evenodd" d="M402.318 82C399.338 82 396.358 85.1544 394.868 88.3088V123.007L396.358 159.283C399.338 165.591 406.788 168.746 412.748 165.591C418.709 162.437 420.199 159.283 420.199 143.511V134.047H429.139C430.699 133.776 432.208 133.244 433.609 132.47L441.06 129.316C447.02 124.584 450 116.698 450 107.235C449.987 104.017 449.484 100.821 448.51 97.772C447.112 94.2438 445.089 91.0315 442.55 88.3088C440.758 86.4739 438.755 84.8843 436.589 83.5772L429.139 82H402.318ZM235.43 107.235C229.47 108.812 225 113.544 225 118.275V157.705L226.49 159.283V160.86L233.94 167.169H265.232C269.702 165.591 272.682 160.86 274.172 156.128V118.275C271.192 104.081 253.311 104.081 248.841 118.275C248.841 115.121 245.861 111.967 242.881 110.39L235.43 107.235ZM287.583 107.235C281.623 108.812 278.642 111.967 277.152 116.698L275.662 138.779L277.152 159.283C281.623 167.169 292.053 168.746 298.013 162.437C300.993 159.283 300.993 157.705 300.993 146.665V138.779H323.344C335.265 134.047 335.265 118.275 323.344 113.544L309.934 111.967H298.013C295.033 108.812 290.563 107.235 287.583 107.235ZM347.185 113.544C336.755 115.121 333.775 127.739 341.225 137.202L347.185 145.088L345.695 146.665C344.096 148.679 342.604 150.785 341.225 152.974L339.735 154.551V156.128L338.245 157.705L336.755 164.014C336.755 178.209 351.656 182.941 360.596 171.9C364.726 165.329 369.204 159.011 374.007 152.974C377.586 148.328 381.064 143.595 384.437 138.779C388.907 134.047 391.887 126.161 388.907 121.43V119.853C384.437 111.967 374.007 110.39 368.046 116.698L366.556 119.853L363.576 123.007L360.596 119.853C359.269 118.112 357.77 116.526 356.126 115.121L347.185 113.544Z" fill="white"/>
</svg>
